<?xml version="1.0" standalone="no"?>
<!DOCTYPE svg PUBLIC "-//W3C//DTD SVG 20010904//EN"
 "http://www.w3.org/TR/2001/REC-SVG-20010904/DTD/svg10.dtd">
<svg version="1.0" xmlns="http://www.w3.org/2000/svg"
 width="512.000000pt" height="512.000000pt" viewBox="0 0 512.000000 512.000000"
 preserveAspectRatio="xMidYMid meet">
<metadata>
Created by potrace 1.14, written by Peter Selinger 2001-2017
</metadata>
<g transform="translate(0.000000,512.000000) scale(0.100000,-0.100000)"
fill="#000000" stroke="none">
<path d="M2182 5067 c-40 -15 -91 -62 -104 -96 -12 -33 -33 -129 -59 -277 -8
-48 -16 -64 -33 -72 -74 -33 -486 -202 -495 -202 -6 0 -70 40 -142 89 -150
101 -199 120 -270 101 -38 -10 -76 -44 -287 -253 -134 -133 -252 -256 -263
-274 -22 -36 -30 -103 -18 -147 5 -16 49 -89 99 -162 49 -73 90 -138 90 -144
0 -8 -44 -120 -85 -215 -7 -16 -38 -91 -70 -167 l-57 -136 -61 -11 c-69 -12
-90 -16 -162 -31 -27 -6 -60 -12 -73 -15 -41 -7 -97 -45 -122 -82 l-25 -37 0
-376 0 -376 25 -37 c36 -53 101 -80 272 -112 l147 -28 20 -46 c69 -161 191
-463 191 -472 0 -6 -34 -60 -75 -120 -42 -60 -85 -126 -97 -147 -29 -51 -29
-137 0 -183 25 -41 487 -502 519 -518 12 -6 44 -13 71 -15 59 -5 100 14 253
119 60 41 114 75 120 75 6 0 119 -45 250 -100 132 -55 244 -100 249 -100 13 0
19 -13 26 -56 3 -22 9 -57 14 -79 5 -22 12 -56 15 -75 23 -131 47 -182 102
-220 l36 -25 351 -3 c238 -2 364 1 391 8 73 21 117 75 135 168 5 26 11 56 14
67 2 11 12 59 21 106 10 48 20 91 24 96 6 9 495 213 512 213 5 0 70 -41 144
-91 74 -49 147 -94 163 -98 40 -12 91 -7 133 13 20 9 145 127 281 264 323 326
320 316 160 555 -94 141 -94 142 -82 177 11 32 132 326 182 441 l19 46 72 13
c40 8 77 15 82 16 6 1 23 5 39 8 106 20 138 30 173 53 79 51 78 44 81 438 2
241 0 363 -8 391 -13 47 -46 86 -92 110 -26 14 -191 51 -308 70 -19 3 -38 11
-42 17 -3 6 -45 105 -93 221 -48 116 -93 225 -101 243 -8 17 -14 36 -14 42 0
6 38 67 85 137 47 69 92 141 100 160 19 46 12 114 -18 160 -39 61 -497 510
-532 521 -26 9 -52 10 -117 4 -10 0 -81 -44 -159 -97 l-143 -97 -47 17 c-55
20 -469 193 -475 198 -2 3 -6 22 -9 44 -4 21 -8 46 -10 54 -2 8 -7 30 -10 48
-29 172 -54 232 -112 272 l-36 25 -361 2 c-261 1 -370 -1 -394 -10z m553 -950
c17 -4 50 -9 75 -12 25 -3 52 -8 60 -10 8 -2 31 -7 50 -10 67 -11 246 -77 343
-127 310 -159 536 -386 696 -698 68 -132 130 -323 147 -448 2 -20 8 -64 12
-97 9 -71 8 -256 -2 -340 -13 -108 -61 -301 -94 -380 -33 -77 -91 -192 -130
-255 -228 -372 -628 -647 -1047 -719 -117 -20 -151 -23 -258 -25 -492 -10
-947 208 -1266 608 -39 49 -71 93 -71 97 0 5 -12 25 -26 46 -129 189 -223 511
-228 780 -12 615 322 1160 880 1441 81 41 264 106 326 117 18 3 52 10 74 15
23 5 73 13 110 16 38 4 70 8 72 9 5 4 249 -3 277 -8z"/>
<path d="M1900 3781 c-49 -15 -89 -42 -115 -75 -15 -19 -109 -177 -210 -351
l-182 -316 2 -102 c2 -56 6 -113 9 -126 11 -47 47 -109 86 -147 l40 -39 0
-493 c0 -422 2 -498 15 -530 20 -47 50 -79 100 -105 40 -21 43 -21 915 -21
872 0 875 0 915 21 50 26 80 58 100 105 13 32 15 108 15 530 l0 493 38 37 c73
72 101 157 98 300 l-2 83 -70 120 c-38 66 -73 128 -79 137 -122 215 -224 387
-242 409 -13 15 -46 39 -75 53 l-51 25 -641 0 c-353 0 -652 -4 -666 -8z m260
-135 c0 -6 -21 -70 -30 -91 -5 -11 -44 -119 -88 -240 l-78 -220 -187 -3 c-103
-1 -187 0 -187 4 0 5 128 228 249 434 33 55 67 100 81 107 22 11 240 20 240 9z
m330 -276 l0 -280 -190 0 -190 0 36 98 c19 53 65 179 101 280 l66 182 88 0 89
0 0 -280z m360 163 c55 -153 124 -347 144 -400 l15 -43 -189 0 -190 0 0 280 0
280 89 0 89 0 42 -117z m369 91 c17 -14 31 -30 31 -35 0 -5 11 -26 23 -47 36
-56 257 -442 257 -448 0 -2 -84 -3 -187 -2 l-187 3 -98 270 c-53 149 -97 273
-98 278 0 4 51 7 114 7 109 0 116 -1 145 -26z m-1079 -1033 c125 -58 296 -29
398 69 l23 22 27 -28 c15 -15 56 -41 92 -58 58 -28 75 -31 155 -31 75 0 99 5
145 26 31 14 72 40 91 57 l36 31 35 -29 c79 -65 143 -87 256 -89 l52 -1 0
-449 c0 -426 -1 -450 -19 -472 l-19 -24 -416 0 c-229 0 -416 2 -417 5 -1 3 -2
159 -3 347 -1 335 -1 343 -22 364 -21 20 -29 21 -315 21 l-294 0 -21 -25 c-21
-25 -22 -33 -22 -349 0 -178 -1 -332 -1 -344 -1 -20 -6 -21 -96 -19 -148 3
-135 -46 -135 492 l0 453 63 2 c34 0 67 2 72 3 61 11 118 40 174 86 l34 28 36
-31 c19 -17 60 -43 91 -57z"/>
<path d="M2810 2345 c-5 -6 -8 -37 -7 -70 l3 -60 207 -1 c148 -1 207 2 208 10
6 103 5 126 -10 127 -157 5 -394 2 -401 -6z"/>
</g>
</svg>
